<?xml version="1.0" encoding="iso-8859-1"?>
<!-- Generator: Adobe Illustrator 19.0.0, SVG Export Plug-In . SVG Version: 6.00 Build 0)  -->
<svg version="1.1" id="Capa_1" xmlns="http://www.w3.org/2000/svg" xmlns:xlink="http://www.w3.org/1999/xlink" x="0px" y="0px"
	 viewBox="0 0 512 512" style="enable-background:new 0 0 512 512;" xml:space="preserve">
<g>
	<g>
		<path d="M504.485,260.263h-78.483v-36.229h46.651c4.151,0,7.515-3.364,7.515-7.515v-49.012c0-4.151-3.364-7.515-7.515-7.515
			h-46.651v-23.622h46.651c4.151,0,7.515-3.365,7.515-7.515V79.843c0-4.151-3.364-7.515-7.515-7.515H39.348
			c-4.151,0-7.515,3.364-7.515,7.515v49.013c0,4.15,3.364,7.515,7.515,7.515h46.651v23.622H39.348c-4.151,0-7.515,3.364-7.515,7.515
			v49.012c0,4.151,3.364,7.515,7.515,7.515h85.065v36.229h-23.386v-13.845c0-4.151-3.364-7.515-7.515-7.515
			s-7.515,3.364-7.515,7.515v13.845H7.515c-4.151,0-7.515,3.364-7.515,7.515v46.816c0,4.151,3.364,7.515,7.515,7.515h55.678v110.048
			c0,4.151,3.365,7.515,7.515,7.515h39.176c4.151,0,7.515-3.364,7.515-7.515V322.108h277.205v110.048
			c0,4.151,3.365,7.515,7.515,7.515h39.176c4.151,0,7.515-3.364,7.515-7.515V322.108h55.678c4.151,0,7.515-3.364,7.515-7.515
			v-46.816C512,263.626,508.636,260.263,504.485,260.263z M46.863,121.341V87.358h418.276v33.983H46.863z M410.973,136.373v23.62
			h-23.386v-23.62H410.973z M372.558,136.371v23.622H139.442v-23.622H372.558z M124.413,136.372v23.62h-23.386v-23.62H124.413z
			 M46.863,209.005v-33.982h418.276v33.982H46.863z M380.072,238.903c-4.151,0-7.515,3.364-7.515,7.515v13.845H139.442v-36.229
			h271.53v36.229h-23.386v-13.845C387.587,242.267,384.223,238.903,380.072,238.903z M102.368,424.642H78.222V322.108h24.146
			V424.642z M433.778,424.642h-24.146V322.108h24.146V424.642z M496.971,307.078h-55.678h-39.176H109.883H70.707H15.029v-31.787
			h78.444c0.013,0,0.026,0.002,0.039,0.002h38.415c0.013,0,0.026-0.002,0.039-0.002h248.068c0.013,0,0.026,0.002,0.039,0.002h38.415
			c0.013,0,0.026-0.002,0.039-0.002h78.443V307.078z"/>
	</g>
</g>
<g>
	<g>
		<path d="M401.542,96.835h-4.525c-4.151,0-7.515,3.364-7.515,7.515c0,4.151,3.364,7.515,7.515,7.515h4.525
			c4.151,0,7.515-3.364,7.515-7.515C409.057,100.199,405.692,96.835,401.542,96.835z"/>
	</g>
</g>
<g>
	<g>
		<path d="M114.983,96.835h-4.525c-4.151,0-7.515,3.364-7.515,7.515c0,4.151,3.364,7.515,7.515,7.515h4.525
			c4.151,0,7.515-3.364,7.515-7.515C122.497,100.199,119.133,96.835,114.983,96.835z"/>
	</g>
</g>
<g>
	<g>
		<path d="M401.542,184.499h-4.525c-4.151,0-7.515,3.364-7.515,7.515c0,4.15,3.365,7.515,7.515,7.515h4.525
			c4.151,0,7.515-3.364,7.515-7.515S405.693,184.499,401.542,184.499z"/>
	</g>
</g>
<g>
	<g>
		<path d="M114.983,184.499h-4.525c-4.151,0-7.515,3.364-7.515,7.515s3.364,7.515,7.515,7.515h4.525
			c4.151,0,7.515-3.364,7.515-7.515S119.133,184.499,114.983,184.499z"/>
	</g>
</g>
<g>
</g>
<g>
</g>
<g>
</g>
<g>
</g>
<g>
</g>
<g>
</g>
<g>
</g>
<g>
</g>
<g>
</g>
<g>
</g>
<g>
</g>
<g>
</g>
<g>
</g>
<g>
</g>
<g>
</g>
</svg>
