<?xml version="1.0"?>
<svg xmlns="http://www.w3.org/2000/svg" viewBox="0 0 512 512" width="512" height="512"><g id="outline"><circle cx="401" cy="89" r="15"/><path d="M24,424h.235a103.31,103.31,0,0,0,55.524-16.018c.081,0,.159.018.241.018h.235a103.283,103.283,0,0,0,73.5-30.419l24.633-24.268h82.477L277.248,408H112a8,8,0,0,0-8,8v32a8,8,0,0,0,8,8H472a8,8,0,0,0,8-8V416a8,8,0,0,0-8-8H341.766l-18.319-54.957a113.384,113.384,0,0,0,84.615-178.874A72.433,72.433,0,0,0,451.761,144H488a8,8,0,0,0,5.657-13.657L464.793,101.48a8.088,8.088,0,0,0-.876-.747A72,72,0,0,0,329.415,68.4L251.8,156.034a50.754,50.754,0,0,0-8.59,7.932L18.122,410.574A8,8,0,0,0,24,424Zm118.461-57.774a87.426,87.426,0,0,1-41.948,23.44L165.2,320H189.38ZM297.145,243.542,244.887,295.8a27.818,27.818,0,0,1-19.8,8.2h-5.775l64.754-64.754Zm-30.111-9.89L196.687,304h-15.67l73-74.623Zm39.638,119.661L324.9,408H293.952l-16.406-54.687Zm-3.083,84.157L299.1,424h31.135l5.333,16H304A7.968,7.968,0,0,0,303.589,437.47ZM120,424H282.234l5.333,16H120Zm344,16H400a7.968,7.968,0,0,0-.407-2.53L395.1,424H464Zm-80.433,0H352a7.968,7.968,0,0,0-.407-2.53L347.1,424h31.135Zm29.509-200.064A97.487,97.487,0,0,1,315.7,337.313H194.605L212.178,320h12.91A43.713,43.713,0,0,0,256.2,307.113l72.928-72.928a50.773,50.773,0,0,0-30.294-86.364l-11.472-1.275a51.094,51.094,0,0,0-5.528-.295l38.178-43.1c0,.285-.013.569-.013.853a72.078,72.078,0,0,0,69.048,71.925A96.985,96.985,0,0,1,413.076,239.936ZM468.687,128h-8.838c.792-2.218,1.467-4.488,2.04-6.8ZM392,48a55.993,55.993,0,0,1,.621,111.983c-.207,0-.414.017-.621.017a56.021,56.021,0,0,1-49.246-82.688c.022-.04.038-.082.059-.122.052-.085.11-.165.158-.252A56.067,56.067,0,0,1,392,48ZM255.355,174.379a34.751,34.751,0,0,1,30.241-11.93l11.472,1.275a34.772,34.772,0,0,1,20.747,59.147l-7.976,7.976-80.022-26.674Zm-36.977,43.293,18.7,6.142L158.635,304H138.328ZM123.5,320h19.865L80.7,387.488a87.149,87.149,0,0,1-36.3,18.2Z"/><path d="M368,248a8,8,0,0,0-16,0,8.009,8.009,0,0,1-8,8,8,8,0,0,0,0,16A24.028,24.028,0,0,0,368,248Z"/><path d="M368,280a8,8,0,0,0-8,8,8.009,8.009,0,0,1-8,8,8,8,0,0,0,0,16,24.028,24.028,0,0,0,24-24A8,8,0,0,0,368,280Z"/><path d="M320,280a8,8,0,0,0-8,8,8.009,8.009,0,0,1-8,8,8,8,0,0,0,0,16,24.028,24.028,0,0,0,24-24A8,8,0,0,0,320,280Z"/></g></svg>
