<svg height="512" viewBox="0 0 60 60" width="512" xmlns="http://www.w3.org/2000/svg"><g id="Page-1" fill="none" fill-rule="evenodd"><g id="018---Bush" fill="rgb(0,0,0)" fill-rule="nonzero"><path id="Shape" d="m1 60h58c.5522847 0 1-.4477153 1-1v-2c0-1.6568542-1.3431458-3-3-3h-1v-1c-.0048275-1.5565205-1.2015222-2.8497158-2.753-2.975.826169-.5674622 1.5719098-1.2439099 2.217-2.011 2.069-2.488 4.536-6.414 4.536-11.014 0-2.974-.794-4.973-2.36-5.941-1.0115558-.5763088-2.2007979-.7572959-3.338-.508.506-2.89 1.213-8.582-.47-11.106-1.0024579-1.5695228-2.7845754-2.463269-4.642-2.328-.5317297.0340214-1.055782.1444901-1.556.328.442-2.7.541-6.684-1.927-9.152-2.489-2.49-5.9-1.172-7.836-.067-.493-3.538-2.514-8.226-7.871-8.226s-7.378 4.688-7.871 8.226c-1.938-1.106-5.347-2.424-7.836.067-2.468 2.468-2.369 6.449-1.927 9.152-.500218-.1835099-1.0242703-.2939786-1.556-.328-1.85614567-.1288587-3.63516951.7633359-4.642 2.328-1.683 2.524-.976 8.216-.47 11.106-1.13720834-.2491028-2.32638076-.0681263-3.338.508-1.566.968-2.36 2.967-2.36 5.941 0 4.6 2.467 8.526 4.536 11.014.64509021.7670901 1.39083096 1.4435378 2.217 2.011-1.5514778.1252842-2.74817246 1.4184795-2.753 2.975v1h-1c-1.65685425 0-3 1.3431458-3 3v2c0 .5522847.44771525 1 1 1zm1-23c0-1.533.244-3.512 1.406-4.236.37394108-.2200184.802306-.3302288 1.236-.318.66053743.0209663 1.31023909.1736173 1.911.449.34521095.1730089.7591833.131807 1.06352142-.1058503.30433813-.2376573.44465327-.6292979.36047858-1.0061497-.739-3.319-1.429-9.3-.145-11.228.60807758-.9751799 1.70822204-1.5310343 2.854-1.442.9757753.0230373 1.8788376.5210469 2.419 1.334.2341954.4719022.7943368.6811779 1.2805851.4784425.4862484-.2027355.7318172-.7479425.5614149-1.2464425-.023-.069-2.29-6.921.76-9.972 2.332-2.329 6.627 1.041 6.669 1.075.3003392.2398335.7115567.2863106 1.0578491.1195614.3462925-.1667492.5663722-.517213.5661509-.9015614 0-.326.091-8 6-8s6 7.675 6 8c.0002401.3843629.2207567.7345727.5672687.9008985.3465121.1663258.7576881.1193284 1.0577313-.1208985.042-.034 4.326-3.415 6.668-1.074 3.05 3.051.783 9.9.76 9.972-.1704023.4985.0751665 1.043707.5614149 1.2464425.4862483.2027354 1.0463897-.0065403 1.2805851-.4784425.5401624-.8129531 1.4432247-1.3109627 2.419-1.334 1.1449605-.0849178 2.2430936.4699203 2.854 1.442 1.283 1.924.593 7.908-.145 11.228-.08626.3769602.0525529.7698679.3564692 1.0089801s.7184561.2815657 1.0645308.1090199c.019-.009 1.895-.914 3.15-.132 1.162.72 1.406 2.699 1.406 4.232 0 4-2.215 7.5-4.073 9.734-1.7120215 2.0683274-4.2570427 3.2656825-6.942 3.266h-33.97c-2.6849573-.0003175-5.22997853-1.1976726-6.942-3.266-1.858-2.234-4.073-5.734-4.073-9.734zm4 16c0-.5522847.44771525-1 1-1h46c.5522847 0 1 .4477153 1 1v1h-48zm-4 4c0-.5522847.44771525-1 1-1h54c.5522847 0 1 .4477153 1 1v1h-56z"/><path id="Shape" d="m37 27c1.6568542 0 3-1.3431458 3-3s-1.3431458-3-3-3-3 1.3431458-3 3 1.3431458 3 3 3zm0-4c.5522847 0 1 .4477153 1 1s-.4477153 1-1 1-1-.4477153-1-1 .4477153-1 1-1z"/><path id="Shape" d="m24 20c1.6568542 0 3-1.3431458 3-3s-1.3431458-3-3-3-3 1.3431458-3 3 1.3431458 3 3 3zm0-4c.5522847 0 1 .4477153 1 1s-.4477153 1-1 1-1-.4477153-1-1 .4477153-1 1-1z"/><path id="Shape" d="m21 34c2.209139 0 4-1.790861 4-4s-1.790861-4-4-4-4 1.790861-4 4 1.790861 4 4 4zm0-6c1.1045695 0 2 .8954305 2 2s-.8954305 2-2 2-2-.8954305-2-2 .8954305-2 2-2z"/><path id="Shape" d="m33 44c2.7614237 0 5-2.2385763 5-5s-2.2385763-5-5-5-5 2.2385763-5 5c.0033061 2.7600532 2.2399468 4.9966939 5 5zm0-8c1.6568542 0 3 1.3431458 3 3s-1.3431458 3-3 3-3-1.3431458-3-3 1.3431458-3 3-3z"/><path id="Shape" d="m14 44c1.6568542 0 3-1.3431458 3-3s-1.3431458-3-3-3-3 1.3431458-3 3 1.3431458 3 3 3zm0-4c.5522847 0 1 .4477153 1 1s-.4477153 1-1 1-1-.4477153-1-1 .4477153-1 1-1z"/><path id="Shape" d="m47 46c1.6568542 0 3-1.3431458 3-3s-1.3431458-3-3-3-3 1.3431458-3 3 1.3431458 3 3 3zm0-4c.5522847 0 1 .4477153 1 1s-.4477153 1-1 1-1-.4477153-1-1 .4477153-1 1-1z"/></g></g></svg>