<?xml version="1.0" encoding="iso-8859-1"?>
<!-- Generator: Adobe Illustrator 19.0.0, SVG Export Plug-In . SVG Version: 6.00 Build 0)  -->
<svg version="1.1" id="Capa_1" xmlns="http://www.w3.org/2000/svg" xmlns:xlink="http://www.w3.org/1999/xlink" x="0px" y="0px"
	 viewBox="0 0 511.998 511.998" style="enable-background:new 0 0 511.998 511.998;" xml:space="preserve">
<g>
	<g>
		<path d="M428.216,145.271c-8.567-11.129-20.996-17.012-35.944-17.012c-0.671,0-1.399,0.018-2.154,0.044
			c0.547-0.512,1.071-1.014,1.553-1.496c10.57-10.57,15.199-23.519,13.387-37.446c-1.61-12.375-8.2-24.655-19.056-35.511
			c-10.856-10.856-23.135-17.445-35.511-19.056c-13.93-1.813-26.876,2.817-37.446,13.387c-0.481,0.481-0.983,1.005-1.496,1.553
			c0.027-0.755,0.045-1.484,0.045-2.154c0-14.948-5.883-27.377-17.012-35.944C284.692,4.023,271.35,0,255.997,0
			c-15.353,0-28.695,4.023-38.584,11.636c-11.129,8.567-17.012,20.996-17.012,35.944c0,0.671,0.018,1.399,0.044,2.154
			c-0.512-0.547-1.014-1.071-1.496-1.553c-10.57-10.57-23.519-15.2-37.446-13.387c-12.375,1.61-24.655,8.2-35.511,19.056
			c-10.856,10.856-17.445,23.135-19.056,35.511c-1.812,13.928,2.817,26.876,13.387,37.447c0.481,0.481,1.005,0.983,1.553,1.495
			c-0.755-0.027-1.484-0.045-2.154-0.045c-14.948,0-27.377,5.883-35.944,17.012c-7.613,9.889-11.636,23.231-11.636,38.584
			c0,15.353,4.023,28.695,11.636,38.584c8.567,11.129,20.996,17.012,35.944,17.012c0.67,0,1.399-0.018,2.153-0.044
			c-0.547,0.512-1.071,1.014-1.552,1.495c-10.57,10.57-15.199,23.519-13.387,37.446c1.61,12.375,8.199,24.655,19.056,35.511
			c10.856,10.856,23.135,17.445,35.511,19.055c1.971,0.256,3.92,0.384,5.847,0.384c11.695,0,22.525-4.696,31.599-13.771
			c0.481-0.481,0.983-1.006,1.496-1.553c-0.027,0.755-0.045,1.484-0.045,2.154c0,14.948,5.883,27.378,17.013,35.945
			c8.24,6.343,18.883,10.184,31.084,11.292v80.657c-4.789-3.882-10.845-8.551-18.01-13.608c1.205-8.396-0.196-19.348-4.063-30.071
			c-6.104-16.922-16.971-29.769-30.6-36.172c-18.354-8.624-42.587-11.137-72.024-7.465c-21.536,2.686-37.724,7.755-38.402,7.969
			c-1.996,0.631-3.637,2.067-4.527,3.962s-0.948,4.075-0.16,6.014c0.268,0.659,6.698,16.355,18.377,34.648
			c15.964,25.003,33.365,42.054,51.72,50.678c6.986,3.283,14.813,4.926,23.062,4.926c7.843,0,16.068-1.486,24.315-4.46
			c10.755-3.879,20.107-9.814,25.796-16.122c12.164,8.711,20.672,15.984,24.518,19.408v36.77c0,4.142,3.358,7.5,7.5,7.5
			c4.142,0,7.5-3.358,7.5-7.5v-9.815c3.513-3.121,10.908-9.425,21.392-16.966c8.85,9.398,26.77,18.481,45.304,18.481
			c7.164,0,14.423-1.358,21.279-4.58c39.401-18.513,62.802-75.175,63.779-77.578c0.789-1.939,0.73-4.12-0.16-6.014
			c-0.89-1.894-2.532-3.331-4.527-3.962c-2.474-0.781-61.028-18.934-100.429-0.422c-24.642,11.579-34.023,42.467-31.776,60.216
			c-5.799,4.103-10.787,7.918-14.862,11.185v-107.68c12.201-1.108,22.844-4.949,31.084-11.292
			c11.13-8.567,17.013-20.997,17.013-35.945c0-0.671-0.018-1.399-0.044-2.154c0.512,0.547,1.014,1.071,1.496,1.553
			c9.075,9.075,19.903,13.771,31.599,13.771c1.927,0,3.877-0.127,5.847-0.384c12.375-1.61,24.655-8.199,35.511-19.055
			c10.856-10.856,17.445-23.136,19.056-35.511c1.812-13.928-2.817-26.876-13.387-37.447c-0.481-0.481-1.005-0.983-1.552-1.495
			c0.755,0.027,1.484,0.045,2.153,0.045c14.948,0,27.377-5.883,35.944-17.012c7.613-9.89,11.636-23.232,11.636-38.584
			C439.853,168.502,435.829,155.16,428.216,145.271z M132.518,402.529c31.131,9.094,58.399,23.828,78.889,37.196
			c-3.673,3.441-9.957,7.595-18.312,10.608c-7.618,2.749-22.412,6.412-35.909,0.068c-29.629-13.922-51.002-52.948-59.057-69.655
			c18.005-4.463,61.688-12.92,91.315,1.001c13.497,6.341,20.121,20.068,22.868,27.686c2.014,5.583,3.038,10.771,3.411,15.105
			c-20.902-13.245-47.965-27.341-78.999-36.407c-3.975-1.16-8.14,1.12-9.302,5.096C126.26,397.203,128.543,401.368,132.518,402.529z
			 M316.515,417.221c10.895-5.12,23.919-6.864,36.619-6.864c17.785,0,34.929,3.423,44.669,5.795
			c-7.529,15.45-26.559,49.605-52.709,61.892c-17.609,8.272-39.01-1.343-47.635-8.912c18.384-11.921,42.698-24.96,70.457-33.069
			c3.976-1.162,6.258-5.326,5.096-9.302c-1.161-3.976-5.326-6.256-9.302-5.096c-27.551,8.048-51.656,20.468-70.445,32.258
			C294.72,441.81,301.478,424.286,316.515,417.221z M307.59,79.274c6.184-8.997,12.023-16.447,16.062-20.486
			c7.257-7.257,15.637-10.323,24.904-9.119c8.935,1.162,18.466,6.414,26.84,14.787c8.374,8.373,13.625,17.905,14.787,26.84
			c1.206,9.269-1.862,17.647-9.119,24.904c-4.053,4.053-11.473,9.867-20.47,16.053c-16.544,3.218-35.902,8.266-52.814,14.723
			c-0.595-0.833-1.209-1.651-1.843-2.454l13.982-13.982c2.929-2.929,2.929-7.678,0-10.606c-2.929-2.929-7.678-2.929-10.606,0
			l-13.982,13.982c-0.803-0.634-1.621-1.248-2.454-1.843C299.324,115.179,304.369,95.817,307.59,79.274z M304.611,183.855
			c0,26.805-21.808,48.613-48.613,48.613s-48.613-21.808-48.613-48.613c0-26.806,21.808-48.613,48.613-48.613
			S304.611,157.05,304.611,183.855z M255.997,15c19.625,0,40.597,8.559,40.597,32.581c0,13.594-6.551,49.013-17.004,77.216
			c-5.077-2.036-10.472-3.434-16.093-4.098V63.613c0-4.142-3.358-7.5-7.5-7.5c-4.142,0-7.5,3.358-7.5,7.5v57.086
			c-5.62,0.663-11.015,2.062-16.091,4.097c-10.459-28.206-17.005-63.547-17.005-77.215C215.4,23.559,236.372,15,255.997,15z
			 M121.812,91.297c1.162-8.935,6.414-18.466,14.787-26.84c8.373-8.374,17.905-13.625,26.84-14.787
			c9.266-1.208,17.647,1.862,24.904,9.119c4.051,4.05,9.865,11.47,16.052,20.47c3.218,16.544,8.266,35.902,14.723,52.814
			c-0.833,0.595-1.651,1.209-2.454,1.843l-40.388-40.388c-2.929-2.929-7.678-2.929-10.606,0c-2.929,2.929-2.929,7.678,0,10.606
			l40.388,40.388c-0.634,0.803-1.248,1.621-1.843,2.454c-16.894-6.447-36.255-11.493-52.798-14.712
			c-8.994-6.183-16.445-12.023-20.486-16.063C123.674,108.944,120.606,100.565,121.812,91.297z M119.722,224.451
			c-24.021,0.001-32.58-20.971-32.58-40.596s8.559-40.597,32.581-40.597c13.594,0,49.013,6.551,77.216,17.004
			c-2.036,5.077-3.434,10.473-4.098,16.093h-57.086c-4.142,0-7.5,3.358-7.5,7.5c0,4.142,3.358,7.5,7.5,7.5h57.086
			c0.663,5.62,2.062,11.015,4.097,16.091C168.731,217.905,133.391,224.451,119.722,224.451z M204.405,288.434
			c-6.189,9.006-12.011,16.436-16.062,20.487c-7.257,7.257-15.636,10.325-24.904,9.119c-8.935-1.163-18.466-6.414-26.84-14.787
			c-13.877-13.877-22.654-34.758-5.668-51.745c4.049-4.049,11.472-9.865,20.47-16.052c16.545-3.218,35.902-8.266,52.814-14.723
			c0.595,0.833,1.209,1.651,1.843,2.454l-10.976,10.976c-2.929,2.929-2.929,7.678,0,10.606c1.464,1.464,3.384,2.197,5.303,2.197
			s3.839-0.732,5.303-2.197l10.976-10.976c0.803,0.634,1.621,1.248,2.454,1.843C212.671,252.529,207.625,271.891,204.405,288.434z
			 M255.997,352.709c-19.625,0-40.597-8.559-40.597-32.581c0-13.594,6.551-49.013,17.004-77.216
			c5.077,2.036,10.472,3.434,16.093,4.098v57.086c0,4.142,3.358,7.5,7.5,7.5c4.142,0,7.5-3.358,7.5-7.5V247.01
			c5.62-0.663,11.015-2.062,16.091-4.097c10.459,28.207,17.005,63.547,17.005,77.215
			C296.594,344.15,275.622,352.709,255.997,352.709z M375.396,303.254c-8.374,8.373-17.905,13.625-26.84,14.787
			c-9.269,1.206-17.647-1.862-24.904-9.12c-4.048-4.047-9.865-11.471-16.052-20.469c-3.218-16.544-8.266-35.902-14.723-52.814
			c0.833-0.595,1.651-1.209,2.454-1.843l40.388,40.388c1.464,1.464,3.384,2.197,5.303,2.197s3.839-0.732,5.303-2.197
			c2.929-2.929,2.929-7.678,0-10.606l-40.388-40.388c0.634-0.803,1.248-1.621,1.843-2.454c16.894,6.447,36.255,11.493,52.798,14.712
			c9.004,6.189,16.434,12.011,20.486,16.062C398.05,268.495,389.273,289.376,375.396,303.254z M392.271,224.452
			c-13.593,0-49.012-6.551-77.216-17.004c2.036-5.077,3.434-10.472,4.098-16.093h57.086c4.142,0,7.5-3.358,7.5-7.5
			c0-4.142-3.358-7.5-7.5-7.5h-57.086c-0.663-5.62-2.062-11.015-4.097-16.091c28.206-10.459,63.547-17.005,77.216-17.005
			c24.021,0,32.581,20.971,32.581,40.597C424.853,203.482,416.293,224.452,392.271,224.452z"/>
	</g>
</g>
<g>
	<g>
		<path d="M182.141,257.711c-2.929-2.929-7.678-2.929-10.606,0l-5.865,5.865c-2.929,2.929-2.929,7.678,0,10.606
			c1.464,1.464,3.384,2.197,5.303,2.197c1.919,0,3.839-0.732,5.303-2.197l5.865-5.865
			C185.07,265.388,185.07,260.639,182.141,257.711z"/>
	</g>
</g>
<g>
	<g>
		<path d="M346.324,93.528c-2.929-2.928-7.678-2.929-10.607,0l-4.864,4.863c-2.929,2.929-2.929,7.678,0,10.607
			c1.465,1.464,3.385,2.196,5.304,2.196s3.839-0.732,5.303-2.196l4.864-4.863C349.254,101.206,349.254,96.457,346.324,93.528z"/>
	</g>
</g>
<g>
</g>
<g>
</g>
<g>
</g>
<g>
</g>
<g>
</g>
<g>
</g>
<g>
</g>
<g>
</g>
<g>
</g>
<g>
</g>
<g>
</g>
<g>
</g>
<g>
</g>
<g>
</g>
<g>
</g>
</svg>
