<svg height="512" viewBox="0 0 128 128" width="512" xmlns="http://www.w3.org/2000/svg"><g><path d="m103.808 119.75h-4.252a12.462 12.462 0 0 0 -7.134-9.619 15.718 15.718 0 0 0 -9.951-8.715 14.093 14.093 0 0 0 -13-8.666 182.752 182.752 0 0 0 -.21-20.981 1.782 1.782 0 0 0 -.016-.253 127.467 127.467 0 0 0 -2.66-18.566 73.78 73.78 0 0 1 9.8-9.084 24.387 24.387 0 0 0 6.952.938 25.131 25.131 0 0 0 13.495-3.658c5.343-3.457 8.36-9.139 8.724-16.432a1.752 1.752 0 0 0 -1.223-1.756c-7.519-2.358-21.333-3.145-29.733 17.86a80.04 80.04 0 0 0 -9.015 8.053 79.611 79.611 0 0 0 -7.285-18.394c-2.876-23.29-16.895-26.107-25.018-25.689a1.75 1.75 0 0 0 -1.625 1.393c-1.524 7.357.009 13.8 4.435 18.619 5.283 5.759 13.611 8.023 18.925 8.023.2 0 .392-.009.585-.016 4.376 8.028 8.033 18.906 9.665 33.614a82.591 82.591 0 0 0 -10.167-9.143c-8.317-20.834-22-20.061-29.455-17.718a1.748 1.748 0 0 0 -1.224 1.756c.36 7.222 3.348 12.85 8.641 16.273a24.879 24.879 0 0 0 13.363 3.624 24.232 24.232 0 0 0 6.838-.915 72.938 72.938 0 0 1 12.542 12.116 181.194 181.194 0 0 1 .146 20.793 13.927 13.927 0 0 0 -6.125 3.383 11.124 11.124 0 0 0 -1.14-.059 12.417 12.417 0 0 0 -10.466 5.657 10.864 10.864 0 0 0 -3.106-.45 11.057 11.057 0 0 0 -10.285 7.134 12.594 12.594 0 0 0 -6.5 10.878h-4.137a1.75 1.75 0 0 0 0 3.5h79.616a1.75 1.75 0 0 0 0-3.5zm-1.854-93.831c-.578 5.514-2.936 9.644-7.023 12.288-4.588 2.968-10.539 3.473-14.8 2.9a62.705 62.705 0 0 1 12.172-6.791 1.75 1.75 0 1 0 -1.254-3.268 60.727 60.727 0 0 0 -10.639 5.665c5.27-9.35 12.618-13.059 21.544-10.794zm-66.991 28.732c-4.036-2.611-6.366-6.687-6.94-12.13 8.814-2.231 16.066 1.432 21.269 10.656a60.667 60.667 0 0 0 -10.5-5.616 1.75 1.75 0 0 0 -1.254 3.268 62.456 62.456 0 0 1 11.928 6.7c-4.196.545-10.01.029-14.503-2.878zm3.708-32.217c-3.416-3.724-4.7-8.49-3.832-14.184 8.9.032 15.075 4.92 18.177 14.28a50.993 50.993 0 0 0 -5.783-6.208 1.749 1.749 0 0 0 -2.346 2.6 50.252 50.252 0 0 1 8.625 10.338c-4.485-.372-10.789-2.41-14.841-6.826zm-6.849 97.316a9.081 9.081 0 0 1 5.186-8.063 1.75 1.75 0 0 0 .929-1.085 7.533 7.533 0 0 1 7.177-5.364 7.4 7.4 0 0 1 3.149.7 1.749 1.749 0 0 0 2.313-.82 8.96 8.96 0 0 1 8.11-5.088 8.625 8.625 0 0 1 1.469.135 1.746 1.746 0 0 0 1.575-.53 10.569 10.569 0 0 1 17.769 3.81 1.75 1.75 0 0 0 1.27 1.142 12.226 12.226 0 0 1 8.681 7.513 1.744 1.744 0 0 0 .988.992 9 9 0 0 1 5.572 6.663z"/><path d="m69.021 103.313a5.857 5.857 0 0 0 -4.264 1.859 1.75 1.75 0 0 0 2.558 2.389 2.326 2.326 0 0 1 3.914.838 1.75 1.75 0 0 0 3.313-1.128 5.834 5.834 0 0 0 -5.521-3.958z"/><path d="m54.805 110.005a5.719 5.719 0 0 0 -2.43-.54 5.8 5.8 0 0 0 -5.532 4.133 1.75 1.75 0 1 0 3.357.993 2.282 2.282 0 0 1 2.175-1.626 2.245 2.245 0 0 1 .953.213 1.75 1.75 0 0 0 1.477-3.173z"/></g></svg>