<?xml version="1.0"?>
<svg xmlns="http://www.w3.org/2000/svg" viewBox="0 0 512 512" width="512" height="512"><g id="Outline"><path d="M256,16H136a8,8,0,0,0-8,8,185.453,185.453,0,0,0,38.111,113.117A185.446,185.446,0,0,0,264.9,204.108l92.64,25.73a79.839,79.839,0,0,1,46.9,118.3q-.761,1.254-1.569,2.479A142.83,142.83,0,0,0,260.97,224h-33.9A54.95,54.95,0,0,1,180.2,198.021c-.067-.109-.138-.215-.21-.32A80.739,80.739,0,0,0,152,170.83V168a32,32,0,0,0-63.69-4.4,76.774,76.774,0,0,0-35.129,22.908L26.607,216.864A42.9,42.9,0,0,0,58.89,288H76.9L65.934,320.9l-16.513,2.749A39.894,39.894,0,0,0,16,363.11V376a8,8,0,0,0,8,8H34.341A55.823,55.823,0,0,0,32,400a8,8,0,0,0,8,8H72a8,8,0,0,0,7.155-4.422L84.944,392H136a8,8,0,0,0,7.663-5.7l3.951-13.172A95.371,95.371,0,0,0,184.408,383.7,72.746,72.746,0,0,0,210.326,432H176a40.045,40.045,0,0,0-40,40v16a8,8,0,0,0,8,8H280.52a122.277,122.277,0,0,0,57.443-14.379A240.026,240.026,0,0,0,256,16ZM42.083,368H32v-4.89a23.939,23.939,0,0,1,20.054-23.678l21.26-3.54a8,8,0,0,0,6.275-5.362L93.766,288H96v56H88A55.966,55.966,0,0,0,42.083,368ZM152,480v-8a24.028,24.028,0,0,1,24-24h64a8,8,0,0,0,3.578-15.155l-12.221-6.111A56.728,56.728,0,0,1,200,376a64.072,64.072,0,0,1,64-64h32V296H264a80.111,80.111,0,0,0-79.561,71.633,79.456,79.456,0,0,1-32.129-10.16L167.663,306.3l-15.326-4.6L130.048,376H80a8,8,0,0,0-7.155,4.422L67.056,392H48.8A40.071,40.071,0,0,1,88,360h16a8,8,0,0,0,8-8V280a8,8,0,0,0-8-8H58.89a26.9,26.9,0,0,1-20.241-44.6l26.574-30.353a61.215,61.215,0,0,1,20.906-15.538c.619-.28,1.246-.533,1.871-.791V192h16V168a16,16,0,0,1,32,0v24h16v-1.879A64.7,64.7,0,0,1,166.625,206.5c.069.109.14.217.213.322A70.851,70.851,0,0,0,227.07,240h33.9A126.805,126.805,0,0,1,387.79,366.84c0,1.59-.023,2.915-.076,4.224a126.289,126.289,0,0,1-7.741,39.591A105.92,105.92,0,0,1,331,467.208l-.1.055A106.213,106.213,0,0,1,280.52,480Zm286.373-93.9a224.429,224.429,0,0,1-55.844,54.824,121.973,121.973,0,0,0,12.457-24.731,142.2,142.2,0,0,0,8.57-41.292,95.834,95.834,0,0,0-41.735-160.474l-92.64-25.73a169.58,169.58,0,0,1-90.332-61.257A169.425,169.425,0,0,1,144.182,32H256A224.025,224.025,0,0,1,438.373,386.1Z"/><circle cx="88" cy="224" r="16"/></g></svg>
