<?xml version="1.0" encoding="iso-8859-1"?>
<!-- Generator: Adobe Illustrator 19.0.0, SVG Export Plug-In . SVG Version: 6.00 Build 0)  -->
<svg version="1.1" id="Capa_1" xmlns="http://www.w3.org/2000/svg" xmlns:xlink="http://www.w3.org/1999/xlink" x="0px" y="0px"
	 viewBox="0 0 475.312 475.312" style="enable-background:new 0 0 475.312 475.312;" xml:space="preserve">
<g>
	<g>
		<path d="M317.656,379.312c-28.699,0.029-55.577,14.065-72,37.6v-66.288l21.744-21.712l38.872,16.096l15.744-37.992l0.328,0.328
			h43.312v-42.512l39.24-16.248l-16.576-40l-0.432-0.176l29.08-29.096l-29.712-29.752l16.104-38.864l-37.992-15.744l0.288-0.328
			V51.312h-42.472l-16.256-39.24l-40,16.576l-0.176,0.432L237.656,0l-29.744,29.712L169.04,13.648L153.296,51.64l-0.328-0.328
			h-43.312v42.48l-39.24,16.248l16.576,40l0.432,0.176l-29.08,29.096l29.712,29.752l-16.104,38.872l37.992,15.744l-0.288,0.32
			v43.312h42.472l16.256,39.24l40-16.576l0.176-0.432l21.096,21.08v66.288c-16.423-23.535-43.301-37.571-72-37.6h-104v8
			c0.053,48.579,39.421,87.947,88,88h192c48.579-0.053,87.947-39.421,88-88v-8H317.656z M141.656,459.312
			c-36.653-0.044-67.44-27.579-71.56-64h87.56c36.653,0.044,67.44,27.579,71.56,64H141.656z M297.656,324.072l-20.904-8.656
			l-7.096-17.04v-20.152c5.719-1.852,11.265-4.2,16.576-7.016l11.616,11.616l8.424,20.328L297.656,324.072z M349.656,291.312
			h-20.688l-17.56-17.552l-6.4-15.376c0.128-0.112,0.248-0.24,0.376-0.352c4.431-3.788,8.538-7.938,12.28-12.408l11.856,4.912
			l20.136,20.088V291.312z M364.856,247.84L338.6,236.968l-9.08-9.08c2.827-5.31,5.186-10.856,7.048-16.576h16.568l22.92,9.504
			l7.92,19.112L364.856,247.84z M394.344,179.312l-16,16H356.32l-15.152-6.272c0.296-3.2,0.496-6.44,0.496-9.728
			c0-2.648-0.128-5.36-0.392-8.28l18.632-7.72h18.44L394.344,179.312z M382.416,119.312l-8.656,20.896l-17.04,7.104h-20.152
			c-1.855-5.719-4.205-11.266-7.024-16.576l11.616-11.616l20.384-8.432L382.416,119.312z M308.872,87.44l20.096-20.128h20.688V88
			l-17.56,17.552l-15.368,6.4c-0.168-0.192-0.352-0.368-0.52-0.56c-3.744-4.361-7.841-8.406-12.248-12.096L308.872,87.44z
			 M269.656,63.832l9.496-22.92l19.12-7.936l7.912,19.136l-10.872,26.256l-9.08,9.08c-5.31-2.827-10.856-5.185-16.576-7.048V63.832z
			 M221.656,38.624l16-16l16,16v22.024l-6.28,15.16c-3.2-0.296-6.4-0.496-9.72-0.496c-2.664,0-5.376,0.128-8.28,0.392l-7.72-18.64
			V38.624z M177.656,34.552l20.904,8.656l7.096,17.04V80.4c-5.719,1.855-11.265,4.205-16.576,7.024l-11.616-11.616l-8.432-20.384
			L177.656,34.552z M125.656,67.312h20.688l17.56,17.552l6.4,15.376c-0.128,0.112-0.248,0.24-0.376,0.352
			c-4.431,3.788-8.538,7.938-12.28,12.408l-11.896-4.888L125.656,88V67.312z M110.456,110.784l26.256,10.872l9.08,9.08
			c-2.827,5.31-5.186,10.856-7.048,16.576h-16.568l-22.92-9.504l-7.92-19.112L110.456,110.784z M80.968,179.312l16-16h22.024
			l15.152,6.272c-0.296,3.2-0.496,6.44-0.496,9.728c0,2.648,0.128,5.36,0.392,8.28l-18.632,7.72h-18.44L80.968,179.312z
			 M92.896,239.312l8.656-20.904l17.04-7.096h20.152c1.855,5.719,4.205,11.266,7.024,16.576l-11.616,11.616l-20.384,8.432
			L92.896,239.312z M166.456,271.216l-20.112,20.096h-20.688v-20.688l17.56-17.552l15.368-6.4c0.168,0.192,0.352,0.368,0.52,0.56
			c3.744,4.361,7.841,8.406,12.248,12.096L166.456,271.216z M205.656,294.792l-9.504,22.92l-19.112,7.936l-7.912-19.136L180,280.256
			l9.08-9.08c5.31,2.827,10.856,5.185,16.576,7.048V294.792z M215.648,264.36c-8.127-2.098-15.909-5.358-23.104-9.68
			c-1.32-0.8-2.672-1.536-3.944-2.4l-0.936-0.688c-0.744-0.512-1.44-1.08-2.16-1.6c-9.342-6.924-17.227-15.623-23.2-25.6
			c-6.036-10.044-9.995-21.198-11.64-32.8v-0.072c-0.28-2.008-0.464-3.808-0.616-5.6c-0.224-2.136-0.392-4.352-0.392-6.608
			s0.168-4.68,0.352-6.992c0.192-2.064,0.44-4.208,0.8-6.552l0.664-4.288c0.296-1.448,0.728-2.848,1.096-4.264
			c2.105-8.111,5.368-15.876,9.688-23.056c0.8-1.328,1.552-2.688,2.4-4l0.288-0.392c0.632-0.92,1.344-1.784,2.008-2.68
			c6.905-9.336,15.582-17.22,25.536-23.2c7.205-4.337,15.001-7.606,23.144-9.704l4.312-1.112c1.6-0.328,3.2-0.504,4.8-0.736
			l0.616-0.088c1.984-0.28,3.768-0.464,5.528-0.624c2.136-0.16,4.272-0.32,6.448-0.328h0.304c2.504,0,4.976,0.168,7.424,0.376
			c1.92,0.192,3.896,0.44,6.048,0.8l4.352,0.68l4.128,1.064c8.143,2.098,15.939,5.367,23.144,9.704c1.304,0.8,2.648,1.528,3.904,2.4
			l0.936,0.688c0.744,0.512,1.44,1.08,2.16,1.6c9.342,6.924,17.227,15.623,23.2,25.6c6.036,10.044,9.995,21.198,11.64,32.8v0.072
			c0.28,2.008,0.464,3.808,0.616,5.6c0.168,2.216,0.336,4.432,0.336,6.688s-0.168,4.68-0.352,6.992
			c-0.192,2.064-0.44,4.208-0.8,6.552l-0.664,4.288c-0.296,1.448-0.728,2.848-1.096,4.264c-2.105,8.111-5.368,15.876-9.688,23.056
			c-0.8,1.328-1.552,2.688-2.4,4l-0.288,0.392c-0.632,0.92-1.344,1.784-2.008,2.68c-6.924,9.342-15.623,17.227-25.6,23.2
			c-7.195,4.322-14.977,7.582-23.104,9.68l-4.312,1.112c-1.6,0.328-3.2,0.504-4.8,0.736l-0.52,0.032
			c-2.024,0.288-3.848,0.464-5.64,0.624c-1.792,0.16-3.832,0.272-5.776,0.296c-0.32,0-0.656,0-0.976,0
			c-2.448,0-4.864-0.168-7.264-0.368c-1.936-0.192-3.928-0.44-6.112-0.8l-4.352-0.68L215.648,264.36z M221.656,319.96v-21.984
			l6.28-15.16c1.296,0.12,2.616,0.128,3.92,0.2c1.848,0.12,3.736,0.272,5.536,0.28l0.264,0.016c1.288,0,2.544-0.144,3.824-0.192
			c1.48-0.064,2.896-0.056,4.456-0.2l7.72,18.64v18.4l-16,16L221.656,319.96z M333.656,459.312h-87.56
			c4.12-36.421,34.907-63.956,71.56-64h87.56C401.096,431.733,370.309,459.268,333.656,459.312z"/>
	</g>
</g>
<g>
</g>
<g>
</g>
<g>
</g>
<g>
</g>
<g>
</g>
<g>
</g>
<g>
</g>
<g>
</g>
<g>
</g>
<g>
</g>
<g>
</g>
<g>
</g>
<g>
</g>
<g>
</g>
<g>
</g>
</svg>
